<?xml version="1.0" encoding="UTF-8"?>
<svg id="Layer_2" data-name="Layer 2" xmlns="http://www.w3.org/2000/svg" viewBox="0 0 1514.62 331.74">
  <defs>
    <style>
      .cls-1 {
        stroke: #54eb77;
        stroke-miterlimit: 10;
        stroke-width: 9px;
      }

      .cls-1, .cls-2 {
        fill: #54eb77;
      }
    </style>
  </defs>
  <g id="Layer_1-2" data-name="Layer 1">
    <g>
      <g>
        <path class="cls-2" d="M94.29,165.74c0-37.27,30.45-68.5,70.34-68.5s70.6,29.4,70.6,68.5v61.21c0,2.29-1.85,4.14-4.14,4.14h-27.15c-2.29,0-4.14-1.85-4.14-4.14v-11.08c-9.19,11.55-23.36,18.63-41.21,18.63-37.79,0-64.3-30.97-64.3-68.76ZM196.57,166.02c0-16.99-13.11-31.07-30.83-31.07s-30.58,14.08-30.58,31.07,12.86,31.07,30.58,31.07,30.83-14.08,30.83-31.07Z"/>
        <path class="cls-2" d="M165.87,331.74c-22.38,0-44.11-4.39-64.57-13.04-19.75-8.36-37.49-20.31-52.72-35.54-15.23-15.23-27.18-32.96-35.54-52.72C4.39,209.98,0,188.25,0,165.87s4.39-44.11,13.04-64.57c8.35-19.75,20.31-37.49,35.54-52.72,15.23-15.23,32.96-27.18,52.72-35.54C121.76,4.39,143.48,0,165.87,0s44.11,4.39,64.57,13.04c19.75,8.35,37.49,20.31,52.72,35.54,15.23,15.23,27.18,32.96,35.54,52.72,8.65,20.46,13.04,42.19,13.04,64.57,0,20.94-3.84,41.3-11.42,60.59-.86,2.19-3.33,3.26-5.49,2.35l-27.82-11.77c-2.04-.86-3.06-3.19-2.26-5.26,5.65-14.61,8.52-30.04,8.52-45.9,0-17.21-3.37-33.89-10-49.58-6.41-15.17-15.6-28.79-27.31-40.5-11.71-11.71-25.33-20.9-40.5-27.31-15.69-6.64-32.38-10-49.58-10s-33.89,3.37-49.58,10c-15.17,6.41-28.79,15.6-40.5,27.31-11.71,11.71-20.9,25.33-27.31,40.5-6.64,15.69-10,32.38-10,49.58s3.37,33.89,10,49.58c6.41,15.17,15.6,28.79,27.31,40.5,11.71,11.71,25.33,20.9,40.5,27.31,15.69,6.64,32.38,10,49.58,10,15.87,0,31.29-2.86,45.91-8.51,2.07-.8,4.4.22,5.26,2.26l11.76,27.82c.92,2.16-.16,4.63-2.35,5.49-19.29,7.58-39.65,11.42-60.59,11.42Z"/>
        <path class="cls-2" d="M269.55,238.79c-16.99,0-31.07,13.11-31.07,30.83,0,17.72,14.08,30.58,31.07,30.58,16.99,0,31.07-12.86,31.07-30.58,0-17.72-14.08-30.83-31.07-30.83Z"/>
      </g>
      <g>
        <path class="cls-2" d="M810.73,187.98c0-37.12,30.33-68.23,70.06-68.23s70.32,29.28,70.32,68.23v60.97c0,2.28-1.85,4.13-4.13,4.13h-27.04c-2.28,0-4.13-1.85-4.13-4.13v-11.04c-9.15,11.5-23.27,18.56-41.04,18.56-37.64,0-64.05-30.85-64.05-68.49ZM912.61,188.26c0-16.92-13.05-30.94-30.7-30.94s-30.46,14.02-30.46,30.94,12.81,30.94,30.46,30.94,30.7-14.02,30.7-30.94Z"/>
        <path class="cls-2" d="M573.29,249.77l-61.05-171.77c-3.88-10.92-13.54-19.01-25.07-20.19-13.73-1.41-26.41,6.76-30.96,19.51l-61.52,172.45c-.63,1.76.68,3.6,2.54,3.6h38.33c1.52,0,2.87-.97,3.36-2.41l12.38-36.45c.49-1.44,1.84-2.41,3.36-2.41h58.11c1.53,0,2.89.98,3.37,2.43l12.13,36.41c.48,1.45,1.84,2.43,3.37,2.43h39.11c1.86,0,3.16-1.84,2.54-3.6ZM500.14,176.15h-32.58c-1.49,0-2.55-1.45-2.1-2.87l18.4-57.96,18.39,57.96c.45,1.42-.61,2.87-2.1,2.87Z"/>
        <path class="cls-2" d="M668.72,57.59h-75.91c-1.9,0-3.43,1.54-3.43,3.43v188.85c0,1.9,1.54,3.43,3.43,3.43h35.98c1.9,0,3.43-1.54,3.43-3.43v-58.08c0-1.96,1.59-3.55,3.55-3.55h32.95c39.94,0,66.65-26.19,66.65-65.33s-26.71-65.33-66.65-65.33ZM659.2,150.16h-26.98v-51.05c0-1.9,1.54-3.43,3.43-3.43h23.55c20.63,0,30.94,9,30.94,27.25s-10.32,27.24-30.94,27.24Z"/>
        <rect class="cls-2" x="752.51" y="53.89" width="40.73" height="199.42" rx="3.43" ry="3.43"/>
        <path class="cls-2" d="M953.7,286.12c0-1.9,1.54-3.43,3.43-3.43h19.05c13.76,0,19.58-4.23,24.87-18.52l2.38-6.35-51.35-132.09c-.87-2.25.79-4.68,3.2-4.68h36.17c1.47,0,2.78.94,3.25,2.33l28.04,82.59,31.17-82.7c.5-1.34,1.78-2.22,3.21-2.22h34.8c2.45,0,4.11,2.49,3.17,4.75l-65.21,156.35c-11.11,26.98-25.92,38.36-49.2,38.36-8.75,0-17.07-1.06-24.41-2.98-1.52-.4-2.58-1.76-2.58-3.33v-28.09Z"/>
      </g>
    </g>
    <g>
      <path class="cls-2" d="M1275.26,108.67h45.92c25.44,0,40.48,14.56,40.48,38.24s-16,37.76-40.96,37.76h-18.56v36h-26.88v-112ZM1334.14,146.91c0-11.04-6.72-16.16-16.96-16.16h-15.04v33.44h13.44c11.84,0,18.56-5.92,18.56-17.28Z"/>
      <path class="cls-2" d="M1368.03,139.71h25.92v16.8c3.68-12.96,11.04-18.24,20.32-18.24,4.32,0,7.68,1.44,10.24,3.2v24c-3.04-2.08-7.36-3.36-12.8-3.36-11.04,0-17.76,7.84-17.76,22.4v36.16h-25.92v-80.96Z"/>
      <path class="cls-2" d="M1427.1,180.51c0-26.24,18.56-43.2,43.52-43.2s44,16.96,44,43.2-19.04,42.56-44,42.56-43.52-16.8-43.52-42.56ZM1488.06,180.35c0-12.64-6.56-21.12-17.44-21.12s-16.96,8.48-16.96,21.12,6.4,20.8,16.96,20.8,17.44-8.32,17.44-20.8Z"/>
    </g>
    <line class="cls-1" x1="1183.11" x2="1183.11" y2="331.74"/>
  </g>
</svg>